# xmcd CD database file
#
# Track frame offsets:
#	150
#	19920
#	38925
#	58620
#
# Disc length: 1045 seconds
#
# Revision: 3
# Processed by: cddbd v1.5.2PL0 Copyright (c) Steve Scherf et al.
# Submitted via: CDex 1.60beta1-cs1
#
DISCID=2e041304
DTITLE=鈴木あみ - BE TOGETHER
DYEAR=1999
DGENRE=JPop
TTITLE0=BE TOGETHER <ORIGINAL MIX>
TTITLE1=BE TOGETHER <BAND MIX>
TTITLE2=NIGHT SKY
TTITLE3=BE TOGETHER <TV MIX>
EXTD=YEAR: 1999
EXTT0=
EXTT1=
EXTT2=
EXTT3=
PLAYORDER=
